<svg id="Capa_1" data-name="Capa 1" xmlns="http://www.w3.org/2000/svg" viewBox="0 0 262 101.12"><defs><style>.cls-1{fill:#fcfcfc;}</style></defs><title>pickup</title><path class="cls-1" d="M1550,1011.45h-21.73l1.86,10.48H1550" transform="translate(-1288 -942.08)"/><path class="cls-1" d="M1288,1021.93h26l1.68-9.94a11.07,11.07,0,0,0-2.22-.55c-8.47,0-16.95,0-25.42,0" transform="translate(-1288 -942.08)"/><path class="cls-1" d="M1544.73,1003.59c0-6.2.12-11.83,0-17.44-0.19-7.15-2.69-9.81-9.85-10.22-15.89-.91-31.77-1.93-47.68-2.37-8.57-.24-15.59-2.65-21.4-9.24s-12.3-13-18.72-19.2a10.14,10.14,0,0,0-6.1-2.87c-11.34-.27-22.7-0.1-34-0.11-5.2,0-7.52,2.84-7.63,7.75-0.1,4.58,0,9.17,0,13.75,0,10.22-1.64,11.91-11.69,11.91q-43.55,0-87.1,0c-2.54,0-5.08.22-7.85,0.36v27.69c7.54,0,14.71.38,21.82-.17a18.21,18.21,0,0,0,9.63-3.71,30.66,30.66,0,0,1,40.11.45,14.07,14.07,0,0,0,8.52,3.28q49.44,0.34,98.88,0a13.5,13.5,0,0,0,7.91-3c12.93-10.84,28.72-10.73,41.51.55,1.24,1.09,2.84,2.42,4.32,2.48C1531.55,1003.75,1537.81,1003.59,1544.73,1003.59Z" transform="translate(-1288 -942.08)"/><path class="cls-1" d="M1372.26,1011.55l1.74,10.29h96l1.89-10.29h-99.59Z" transform="translate(-1288 -942.08)"/><path class="cls-1" d="M1343.75,1043.19c12.42,0.05,21.64-8.93,21.64-21.08a21.12,21.12,0,0,0-21.57-21.4c-11.83.07-21.8,10.08-21.57,21.66A21.36,21.36,0,0,0,1343.75,1043.19Z" transform="translate(-1288 -942.08)"/><path class="cls-1" d="M1500.13,1043.2c12.49,0,21.45-9,21.32-21.34a20.88,20.88,0,0,0-21.1-21.14A21.37,21.37,0,0,0,1478.5,1022C1478.35,1033.88,1487.89,1043.24,1500.13,1043.2Z" transform="translate(-1288 -942.08)"/><path class="cls-1" d="M1288,1011.45c8.47,0,16.95,0,25.42,0a11.07,11.07,0,0,1,2.22.55l-1.68,9.94h-26v-10.48Z" transform="translate(-1288 -942.08)"/><path class="cls-1" d="M1550,1021.93h-19.87l-1.86-10.48H1550v10.48Z" transform="translate(-1288 -942.08)"/><path class="cls-1" d="M1544.73,1003.59c-6.92,0-13.19.16-19.43-.12-1.48-.07-3.08-1.39-4.32-2.48-12.78-11.29-28.57-11.4-41.51-.55a13.5,13.5,0,0,1-7.91,3q-49.44.31-98.88,0a14.07,14.07,0,0,1-8.52-3.28,30.66,30.66,0,0,0-40.11-.45,18.21,18.21,0,0,1-9.63,3.71c-7.1.55-14.28,0.17-21.82,0.17V975.93c2.77-.13,5.31-0.35,7.85-0.36q43.55,0,87.1,0c10,0,11.66-1.7,11.69-11.91,0-4.58-.06-9.17,0-13.75,0.11-4.91,2.43-7.75,7.63-7.75,11.35,0,22.71-.16,34,0.11a10.14,10.14,0,0,1,6.1,2.87c6.42,6.22,12.82,12.5,18.72,19.2s12.83,9,21.4,9.24c15.9,0.45,31.79,1.46,47.68,2.37,7.15,0.41,9.65,3.07,9.85,10.22C1544.85,991.76,1544.73,997.39,1544.73,1003.59Zm-136.44-30.46h45.8c-5.84-8.72-11.1-16.69-16.54-24.53a5.41,5.41,0,0,0-3.61-2.25c-8.44-.2-16.88-0.1-25.65-0.1v26.89Zm31.88-26.26c5.3,8.07,9.87,15.11,14.53,22.08,3.48,5.21,7.37,5.3,11.25,1.57-7.3-8-14.6-16-22-23.92C1443.61,946.24,1442.39,946.69,1440.17,946.87Z" transform="translate(-1288 -942.08)"/><path class="cls-1" d="M1372.26,1011.55h99.59l-1.89,10.29h-96Z" transform="translate(-1288 -942.08)"/><path class="cls-1" d="M1343.75,1043.19a21.36,21.36,0,0,1-21.5-20.82c-0.24-11.58,9.74-21.59,21.57-21.66a21.12,21.12,0,0,1,21.57,21.4C1365.39,1034.26,1356.17,1043.24,1343.75,1043.19Zm12.05-21.09c0.05-5.76-6-11.72-11.91-11.64a11.58,11.58,0,0,0-.14,23.15C1349.58,1033.77,1355.75,1027.87,1355.81,1022.1Z" transform="translate(-1288 -942.08)"/><path class="cls-1" d="M1500.13,1043.2c-12.24,0-21.78-9.32-21.63-21.22a21.37,21.37,0,0,1,21.85-21.26,20.88,20.88,0,0,1,21.1,21.14C1521.58,1034.2,1512.62,1043.17,1500.13,1043.2Zm0.18-9.58c6.13-.17,11.78-6,11.58-12-0.2-5.64-5.93-11.16-11.63-11.2A11.58,11.58,0,1,0,1500.31,1033.62Z" transform="translate(-1288 -942.08)"/><path class="cls-1" d="M1408.29,973.13V946.24c8.77,0,17.22-.09,25.65.1a5.41,5.41,0,0,1,3.61,2.25c5.44,7.85,10.69,15.82,16.54,24.53h-45.8Z" transform="translate(-1288 -942.08)"/><path class="cls-1" d="M1440.17,946.87c2.23-.19,3.44-0.63,3.79-0.27,7.4,7.93,14.7,15.94,22,23.92-3.89,3.74-7.77,3.65-11.25-1.57C1450,962,1445.47,954.94,1440.17,946.87Z" transform="translate(-1288 -942.08)"/><path class="cls-1" d="M1355.81,1022.1c-0.05,5.78-6.23,11.67-12.06,11.51a11.58,11.58,0,0,1,.14-23.15C1349.76,1010.38,1355.86,1016.34,1355.81,1022.1Z" transform="translate(-1288 -942.08)"/><path class="cls-1" d="M1500.31,1033.62a11.58,11.58,0,1,1-.06-23.16c5.71,0,11.44,5.56,11.63,11.2C1512.09,1027.61,1506.43,1033.46,1500.31,1033.62Z" transform="translate(-1288 -942.08)"/></svg>